<svg id="Layer_1" data-name="Layer 1" xmlns="http://www.w3.org/2000/svg" xmlns:xlink="http://www.w3.org/1999/xlink" viewBox="0 0 1920 1080"><defs><style>.cls-1{fill:none;}.cls-2{fill:#ffbf00;}.cls-3{font-size:72px;font-family:BradleyHandITC, Bradley Hand ITC;}.cls-4{clip-path:url(#clip-path);}</style><clipPath id="clip-path"><rect class="cls-1" width="1920" height="1079"/></clipPath></defs><title>aboutus-hero</title><rect class="cls-2" width="1920" height="1080"/><circle cx="760" cy="812" r="2"/><circle cx="760.5" cy="715.5" r="33.5"/><circle cx="421" cy="118" r="77"/><circle cx="1479.5" cy="441.5" r="86.5"/><circle cx="1367.5" cy="756.5" r="104.5"/><circle cx="528" cy="409" r="85"/><circle cx="1217" cy="175" r="104"/><g class="cls-4"><path d="M244,766.5A126.87,126.87,0,0,1,117.5,893C47.92,893-9,836.08-9,766.5a126.5,126.5,0,0,1,253,0Z"/><ellipse cx="1834" cy="174.5" rx="230" ry="234.5"/><ellipse cx="807" cy="-83.5" rx="230" ry="234.5"/><ellipse cx="1776" cy="983.5" rx="230" ry="234.5"/><ellipse cx="560" cy="1036.5" rx="230" ry="234.5"/><ellipse cx="35" cy="281.5" rx="230" ry="234.5"/></g></svg>