<svg xmlns="http://www.w3.org/2000/svg" viewBox="0 0 1920 1080"><defs><style>.cls-1{fill:#f9c973;}.cls-2{fill:#f38484;}.cls-3{fill:#ce840f;}.cls-4{fill:#f7b2b2;}.cls-12,.cls-13,.cls-14,.cls-15,.cls-16,.cls-20,.cls-21,.cls-26,.cls-27,.cls-5,.cls-9{fill:none;stroke-miterlimit:10;}.cls-5{stroke:#ccccce;}.cls-6{fill:#e2e2e2;}.cls-7{fill:#ffbf00;}.cls-8{fill:#1200ff;}.cls-9{stroke:#1200ff;}.cls-10{fill:#fff;}.cls-11{fill:#fff9b0;}.cls-12{stroke:#f7b346;}.cls-13{stroke:#e2b369;}.cls-14,.cls-15{stroke:#4cd7e5;}.cls-14,.cls-26{stroke-linecap:round;}.cls-14,.cls-15,.cls-16,.cls-26{stroke-width:2px;}.cls-16{stroke:#a2e9fc;}.cls-17{fill:#bf2652;}.cls-18{fill:#a2e9fc;}.cls-19{fill:#fc6c85;}.cls-20{stroke:#3aafeb;}.cls-21{stroke:#0a9ce5;}.cls-22{fill:#3aafeb;}.cls-23{fill:#adb6c4;}.cls-24{fill:#212121;}.cls-25{fill:#353437;}.cls-26,.cls-27{stroke:#fff;}.cls-28{fill:#c5c5c9;}</style></defs><g id="Layer_6" data-name="Layer 6"><path class="cls-1" d="M840,583s81,32,196,0l-32-217-21-50-13.5,2.24s-3.82-10.74-8.16-11.49c0,0,3.5,6.07-1.67,9.91s-26,10.55-41.56,2.7c0,0-13.61-5.24-6.61-11.55,0,0,1-3.31-3-.31s-5,6.68,3,18.34-45,19.66-45,19.66l-13,52Z"/></g><g id="Layer_10" data-name="Layer 10"><path class="cls-2" d="M913.56,269.68s.56,27.79-1,34.56-7.71,11.47,7.36,15.12c0,0,15.81,7.48,37-1.94,0,0,6.13-.42,5.13-8.42,0,0-4.14-3.64-3.57-11.32S958,268,958,268Z"/><path class="cls-3" d="M980.24,317.21c-4.74-13.71-2.74-19.71-21.74-29.71,0,0-.66,16.5,1.17,19.25l1.83,2.75.13,0a1.62,1.62,0,0,1-.1-.18c-3-4.84,5.84-.41,6.9,4.37,0,0-9.44,11.94-6.68,13.87,0,0,11.47-.82,13.61.55s5.67,4,5.67,4S985,330.92,980.24,317.21Z"/><path class="cls-3" d="M963,310.93a.94.94,0,0,1-.59-.65l0,0a1.16,1.16,0,0,1-.26-.59,4.22,4.22,0,0,0-.51-.13c2.74,4.73-4.2,7.65-4.2,7.65-21.08,9.67-36.93,2.33-43.77,0a5.71,5.71,0,0,1-2.65-1.72c-2.67-3.24.49-8.7.49-8.7,3-4.75,2-17.92,2-17.92C898.5,291.16,891,316,889.17,329s1.87,9,1.87,9c7.05-12,22.46-8.5,22.46-8.5h2c-.61-.51-1.27-1-1.87-1.47a8.29,8.29,0,0,1-2.34-3.4,3.83,3.83,0,0,1-.2-.63c-.09-.13-.19-.25-.29-.37-.77-1.06-1.47-2.19-2.14-3.33a.9.9,0,0,1-.81-.48c-.49-1.13-1.24-2.12-1.65-3.28a11.19,11.19,0,0,1-.53-3.89,5.65,5.65,0,0,1,.34-2c.23-.58.57-1.11.85-1.66a3.71,3.71,0,0,1,.33-.88,2.27,2.27,0,0,1,1-1.57,1,1,0,0,1,.84-.07.88.88,0,0,1,.78-.41,1,1,0,0,1,.52,1.91,1,1,0,0,1-.55.82h0a2.09,2.09,0,0,0,0,.25,7.18,7.18,0,0,1,.13,1.31,1.12,1.12,0,0,1-.3.73.91.91,0,0,1-.24.16.17.17,0,0,0,0,.07,4.7,4.7,0,0,0,0,1,6.66,6.66,0,0,0,.16,1.09,5.75,5.75,0,0,0,.75,2c.43.66.87,1.28,1.27,1.95a.92.92,0,0,1,1.33-.32,14.4,14.4,0,0,1,1.11,1,7.4,7.4,0,0,0,1.36.52c1,.3,2,.52,3,.82s2.17.71,3.25,1.07a1,1,0,0,1,.62,0,55.1,55.1,0,0,0,8.55,1.72c2.47.38,5,.58,7.48.74,2-.2,3.94-.39,5.92-.49a4.76,4.76,0,0,1,2.71-.82,5,5,0,0,1,1.87-.35,5.33,5.33,0,0,1,.82.07,4.71,4.71,0,0,1,2.73-.95,4.61,4.61,0,0,1,3.17-1.23.91.91,0,0,1,.9-.6l.56,0a14.88,14.88,0,0,0,3.38-2.5,8.54,8.54,0,0,0,2.61-4.63,1.09,1.09,0,0,1,.14-.43A.64.64,0,0,0,963,310.93Z"/></g><g id="Layer_2" data-name="Layer 2"><path class="cls-4" d="M967.5,236.5s1.85,20.23-10.07,38.12S935.5,288.5,935.5,288.5s-14,6-24-19-5.81-30.8-7.9-46.4,26.65-36.32,26.65-36.32l16.54,5.49,20.81,17.23,1.9,22Z"/><path d="M901.5,176.5s51-16.11,58.5,17.95c0,0,21.5,2.05,10.5,41.05h-2.44s-2.56-23-8.06-26a10.89,10.89,0,0,1-5.5-9s-25-6-35,2-12.23,13-14.12,33H901.5a36,36,0,0,1-5-24c2-14-5-17-5-17s7,0,9,3,1-10.87-9-15.44c0,0,10-4.56,18,.44C909.5,182.5,910.5,180.5,901.5,176.5Z"/><path d="M911.5,225.5s13-6,18,1c0,0,3,4-3,2C926.5,228.5,922.5,226.5,911.5,225.5Z"/><path d="M960.66,226.08s-11.16-6.58-17.16-.58c0,0-3,4,1,2C944.5,227.5,950.82,224.67,960.66,226.08Z"/><path d="M914.46,234.48a7.61,7.61,0,0,1,2.57-2.69,7.72,7.72,0,0,1,3.63-1.11,8.65,8.65,0,0,1,3.77.64,17.68,17.68,0,0,1,1.66.92,16.86,16.86,0,0,1,1.44,1.22l-.06.08a14.5,14.5,0,0,1-1.71-.68l-1.69-.61a13.74,13.74,0,0,0-3.4-.77,7.36,7.36,0,0,0-6.13,3Z"/><path d="M944,235a8.6,8.6,0,0,1,2.56-3.22,6.16,6.16,0,0,1,4-1.16,8,8,0,0,1,4,1.4,16,16,0,0,1,1.59,1.36,19.63,19.63,0,0,1,1.32,1.6l-.07.08c-.6-.36-1.15-.75-1.69-1.14L954,232.84a11.14,11.14,0,0,0-3.55-1.45,5.47,5.47,0,0,0-3.68.79,8,8,0,0,0-2.74,2.84Z"/><circle cx="950" cy="233" r="2"/><circle cx="921.79" cy="233.28" r="2.32"/><path class="cls-5" d="M922.48,260.8s8.45,4.13,23.32.39c1-.24,2-.53,3.06-.85l.45-.14"/><path class="cls-6" d="M946.7,261.16a5.37,5.37,0,0,1-1.49.2h0a6,6,0,0,1-.61.11,5,5,0,0,1-1.87.45c-6.24,1.45-14.41.22-16.77-.19h-.24l-.43,0c-.15,3.09,3.25,6.78,3.25,6.78s6,5,13,1C947,266.36,947,262.62,946.7,261.16Z"/><path class="cls-7" d="M913.5,332.5c-.32-.84-.65-1.64-1-2.4-2.9-.51-11-5.22-19.53,4.9-9.28,11,1.31-19,6-31-.31-2,4.56-6.1,6-7-2.53-.38-61.6,24.55-63.5,25.5s-7,2-16,33-16,62-14,66c0,0-6.75,4.82-3.2,20.15l.06.28c0-.08,9.19-20.42,36.14-17.43,0,0,11-1,12,2,0,0,11-11,21,2,0,0,2,7,7,10,0,0,19-31,30-65C914.5,373.5,918.5,345.5,913.5,332.5Z"/><path class="cls-8" d="M808.43,442.22a2.86,2.86,0,0,1,.07.28C812.19,457.25,809,444.32,808.43,442.22Z"/><path class="cls-8" d="M961.53,288.79a26.91,26.91,0,0,0-3-1.29l2.84,2.66C961.4,289.7,961.45,289.25,961.53,288.79Z"/><path class="cls-7" d="M1026.5,322.5c-8.7-4-43.41-19.41-54.5-23.5.34.77,1.76,7.2,2,8,.72,2.44,3,6.52,2,9,1.4,5.45,7.21,13.38,6.5,15.5-1,3-6-4-9-4h-11a4.49,4.49,0,0,1,0-1.5c-.84,1.14-1.52,3.12-1,6.5,1,7,8,48,12,59s6,22,15,39c0,0,14-22,31-36l6-6c1-1,5,1,1,6s-20,31-20,31-8,14,5,3,35-28,41-29C1052.5,399.5,1037.5,327.5,1026.5,322.5Z"/><path class="cls-7" d="M1043.5,488.5l-6,3h-17.61l-6.39,3s6,75,17,90c0,0-6,3.34-17,4.67s4,25.33,4,25.33l3-6s2,6,43,5a21.8,21.8,0,0,1,1,6s6,2,19-9c0,0-7-62-24-92S1043.5,488.5,1043.5,488.5Z"/><path class="cls-7" d="M870.5,467.5s-4,5-10-2c0,0-2.72,8.46-12.86,3.73,0,0-3.14,6.27-10.14,5.27,0,0-18,48-24,77a448.93,448.93,0,0,0-8,59c0,2,17,5,17,5s13-61,20-73c0,0,9-37,18-52h6s-2,72-16,96c0,0-2,2,8,4h0l2,13s-29-1-40,3,50-23,50-23l4-78-2-14-14-1-7-6v-3S869.5,468.5,870.5,467.5Z"/><path class="cls-7" d="M1054.5,414.5s-27,22-27,24-2.55,5,8.22,0,21.78-9,21.78-9Z"/><path class="cls-9" d="M1058.5,436.5s-25,13-41,27l22,13S1066.5,457.5,1058.5,436.5Z"/><circle class="cls-10" cx="921.79" cy="233.28" r="1"/><circle class="cls-10" cx="950" cy="233" r="1"/></g><g id="Layer_8" data-name="Layer 8"><path class="cls-3" d="M848,495s-39,94-35,110"/><path class="cls-3" d="M1032,498s37,67,43,113"/><path class="cls-3" d="M970,338s16,83,29,95"/><path class="cls-3" d="M905.77,338S917,371,882,425"/><path class="cls-1" d="M811,416s22-13,42,2"/><path class="cls-3" d="M1027,323s-23,47-21,61c0,0-2.13,25.51,6.44,44.25,0,0,18-20.25,46.26,5.75C1058.7,434,1043,334,1027,323Z"/><path class="cls-3" d="M840.15,323s24.74,22,26.3,55.5c0,0,2.61,12.5-11.42,46.5,0,0-7.5-1-9.26,0,0,0-9.24-9.38-27.5-5.19S817,420,817,420s-7.39,1.54-7.19,2.27S827.3,327,840.15,323Z"/><path class="cls-3" d="M866.64,491.5h-5.55S844,527,842,544c0,0-18,55-16,60,0,0,19-1,32-1l1.5-12.5-9.31-2.35s11.52-34.15,11.92-40.4S866.78,507.5,866.64,491.5Z"/><path class="cls-3" d="M1019.13,491.5l-5.36,3.5s3.73,66.5,15.73,89.5c0,0,2,1-9,4l3.22,22.5s26.78,5.5,38.78,1.5C1062.5,612.5,1047.76,532.5,1019.13,491.5Z"/></g><g id="Layer_9" data-name="Layer 9"><path class="cls-2" d="M846.24,425s-7.12,1.89-7.18,7.95,0,1.05,0,1.05-10.61-2.31-11.34,11.84c0,0-11.72-2.84-9.22,11.66,0,0-9.91-3.2-10.2-15.85C808.3,441.65,817.49,421,846.24,425Z"/><path class="cls-3" d="M1051.85,440.15s7.15,4.63,5.65,15.24c0,0,5.5-9.39,1-18.89Z"/></g><g id="Layer_3" data-name="Layer 3"><path class="cls-11" d="M858.5,590.5s91,17,161-2c0,0,10,54,10,68,0,0,6,63,4,100s2,60,2,60,3,43,4,72c0,0,13,77,12,62,0,0,4,11-7,22,0,0,12,10,2,29,0,0-4-8-30,4,0,0-2,4-4-5s-22-57-27-88-9-115.06-9-115.06-15-15.94-8-29.94c0,0-14-13-14-44,0,0-11-64-10-79h-10s-15,93-14,95,2,23-11,36a21,21,0,0,1-8.07,21.94s1.07,61.06-4.93,102.06-17,89-20,103c0,0-6,2-18-2s-17-2-17-1-16-4-2-24c0,0-12.49-15.3-5.74-29.65S844.5,834.5,844.5,818.5c0,0,5-45,3-62s7-133,7-133Z"/><path class="cls-12" d="M932.5,600.5s2,29,2,33"/><path class="cls-12" d="M946.36,600.5s4.14,19,2.14,19"/><path class="cls-12" d="M885.5,598.5s-9,17-27,16"/><path class="cls-12" d="M992,598.5s11.52,13,29.52,14"/><path class="cls-13" d="M883.5,639.5s3.58-3.09,20-1.65c8.32.73,19.93,2.62,36,6.65a82.44,82.44,0,0,0,31-5s26-5.11,21.48,3-33.48,5-33.48,5"/><path class="cls-1" d="M867.5,1000.5s21-69,15-117c0,0,0-74,8-102s21-100,15-127-2-16.65-2-16.65l36,6.65s1.65.08,4.26.06l2.55-.06c6.81-.23,17.24-1.23,24.14-5,0,0,26-5.11,21.48,3S973.17,648,973.17,648s.33,35.5,1.33,43.5,7,60,7,60l5,27,2,9s5,13.81,4,16.9,5,62.1,4,76.1,13,84,13,84l12,38.83s-4.9.48-6.45,3.33-33-93.68-30.76-102.92c0,0-6.44-67.9-6.11-75.57s-1.56-28.35-1.56-28.35.43-2.34-6.34-11.33A19.7,19.7,0,0,1,967.48,770l1-2.5s-8.39-9.72-10.69-19.86-4.31-17.14-3.31-24.14c0,0-8.58-56.38-8.79-59.69s-2.1-26.5-2.16-27.91-12-1.4-12-1.4l4,7-12.82,79.37-2.22,17.78s2.73,21.36-8.12,33.61l-2.84,3.24s3.85,11.89-8.07,21.94l-.59,47.95s-3,45.36-3.18,45.24S890,943,887.77,949.26L876.5,1002.5h-10Z"/><path class="cls-1" d="M1026.19,634.5s-3.69,75-1.69,84c0,0,5,62,7,67,0,0,3.2-47.84,2.1-64.42S1029.88,637.5,1026.19,634.5Z"/><path class="cls-1" d="M1032.5,794.5s-6,54-3,64c0,0,5,52,11,61,0,0,5,18,7,22,0,0-2.09-19.07-2.55-21.53s-5.45-27.47-5.45-31.47-2.29-56.27-3.14-59.13S1032.5,794.5,1032.5,794.5Z"/></g><g id="Layer_7" data-name="Layer 7"><path class="cls-4" d="M1052.85,440.15s9.24,7,4.44,17.69S1018.5,501.5,979.5,503.5s-.93,0-.93,0-65.54,0-75.8-12,93.73-24,93.73-24Z"/><path class="cls-4" d="M856.5,426.5s12.65-12.42,22.33,5.29c0,0,11.5,36.49,11.58,37.1s4.08,10.86-1.92,11.73-11-9.12-14-15.12c0,0-6,8-14,0,0,0-4.72,8.46-12.86,3.73,0,0-4.14,6.27-10.14,5.27s-19-17-19-17-2.55-13.31,9.22-11.66c0,0-.65-12.34,11.07-11.84C838.79,434,841.5,419.5,856.5,426.5Z"/></g><g id="Layer_4" data-name="Layer 4"><path class="cls-14" d="M675.72,233.28S607,301,547.5,338c0,0-106.1,63-112.8,124,0,0-42.81,85,59.75,155S887,695,1129,630c0,0,255-77,268.51-200.5s-224.67-91-280.34-55.5"/><path class="cls-15" d="M545,843s252,47,454-89.5"/><polyline class="cls-16" points="1222 165.34 1222 258 1270.5 307.5"/><path class="cls-1" d="M694.5,8.5l6.26-7.27L704.5,7.5v37s0,3.07-5,2-36-16-36-16-4-4.26,0-7.63S694.5,8.5,694.5,8.5Z"/><path class="cls-1" d="M738.5,166.5s-13-5-28,11-22,39-22,39,19.15-1.74,44.07-25.37C732.57,191.13,745.5,177.5,738.5,166.5Z"/><path class="cls-17" d="M766.5,156.5s3,19-2,32-4,14-4,14,0,2,5-1,13-13,28-29,11-42,10-44S766.5,156.5,766.5,156.5Z"/><path class="cls-17" d="M747.5,139.5s-20-6-39,5c0,0-13,4.17,0-7.41s11-11.59,23-23.59,42-16,53-10S747.5,139.5,747.5,139.5Z"/><rect class="cls-18" x="547.5" y="429.5" width="178" height="122"/><rect class="cls-18" x="1215.5" y="653.5" width="145" height="100"/><path class="cls-19" d="M735.72,151l7.66-12.27c.08-.13.16-.26.23-.39l7.49-14.06a6.53,6.53,0,0,1,1-1.36c6.7-7.23,70.07-75.12,95.94-86.18a7.1,7.1,0,0,0,.91-.47c4.08-2.58,36-22.54,41.57-19.73,6,3-27,54-28,55s-18.76,22.71-27.82,32.8a4.64,4.64,0,0,1-.38.39c-2.82,2.66-35.06,33.07-40.8,38.81L785.05,152a6.38,6.38,0,0,1-1.22,1c-3.82,2.32-23,14-29.33,17.59-6,3.43-13.46-4.89-18.62-12.38A6.49,6.49,0,0,1,735.72,151Z"/><circle class="cls-11" cx="823" cy="84" r="7.5"/><circle class="cls-11" cx="840" cy="66" r="7.5"/><path class="cls-17" d="M789.5,112.5s.66-2,3.33,0,2.67,3-.33,6-58,56-58,56-3.87,1.59-2.44-3.21S789.5,112.5,789.5,112.5Z"/><path class="cls-11" d="M849.5,38.5l21.4,20s23-35.87,20.28-40.94-18.4,4.86-18.4,4.86L849.5,35.87S847.5,36.5,849.5,38.5Z"/><path class="cls-11" d="M701.5,3.5v33s0,5-5,3-35-15-35-15-4-2,3-6,34-17,34-17S701.5-.5,701.5,3.5Z"/><path class="cls-1" d="M468.5,114.5l-2.32-1.56-8.68,8.56s15,56,18,63,8,1,8,1l14.33-14L477.67,128.4Z"/><path class="cls-11" d="M470.5,113.5l56,30s6,1,1,6-38,31-38,31-3,2-5-2-18-63-18-63S464.5,111.5,470.5,113.5Z"/><path class="cls-1" d="M1451.5,4.5l-9,6-6,54s-2,4,4,3,45-12,45-12l7-6.5-37-29.5Z"/><path class="cls-11" d="M1453.5,3.5l40,42s1,4-3,4l-43,11s-4,2-3-4l1-6,5-46a3.66,3.66,0,0,1,.75-1.25C1451.75,2.75,1452.5,2.5,1453.5,3.5Z"/><path class="cls-1" d="M1459,1020.56l10,4.09,48.09-25.3s4.43-.58.24-5-35.16-30.54-35.16-30.54l-9.28-2.13-3.72,47.15Z"/><path class="cls-11" d="M1457,1019.46l12.36-56.67s2.76-3.07,5,.25l33.21,29.44s3.9,2.2-1.63,4.73l-5.53,2.54-40.9,21.63a3.54,3.54,0,0,1-1.46.08C1457.36,1021.33,1456.73,1020.85,1457,1019.46Z"/><path class="cls-1" d="M602.76,1046.81l12.75,5.2,61.19-32.19s5.64-.74.31-6.35-44.74-38.87-44.74-38.87l-11.81-2.7-4.74,60Z"/><path class="cls-11" d="M600.28,1045.41,616,973.3s3.5-3.91,6.36.31l42.26,37.47s5,2.79-2.08,6l-7,3.22-52,27.54a4.7,4.7,0,0,1-1.86.1C600.74,1047.79,599.94,1047.18,600.28,1045.41Z"/><path class="cls-1" d="M763.79,770.79l5.56-2.85,7-30.62s1.41-2.17-2.1-2-26.62,4-26.62,4l-4.42,3.28,19.3,19.35Z"/><path class="cls-11" d="M762.58,771.24l-20.23-26.73s-.31-2.36,2-2.1l25.41-3.51s2.43-.89,1.46,2.49l-1,3.38-5.87,26.09a2.15,2.15,0,0,1-.51.67C763.54,771.78,763.09,771.88,762.58,771.24Z"/><path class="cls-16" d="M1258.5,158.5s-67-31-120,32-4,133,2,138"/><circle class="cls-16" cx="1222" cy="258" r="119.5"/><path class="cls-16" d="M1328.83,258s-.33,99.5-106.83,107"/><rect class="cls-20" x="535.5" y="418.5" width="179" height="123"/><rect class="cls-21" x="563.5" y="445.5" width="131" height="33"/><line class="cls-21" x1="563.5" y1="490.5" x2="694.5" y2="490.5"/><line class="cls-21" x1="562.5" y1="499.5" x2="694.5" y2="499.5"/><line class="cls-21" x1="563.5" y1="507.5" x2="694.5" y2="507.5"/><line class="cls-21" x1="563.5" y1="516.5" x2="643.5" y2="516.5"/><rect class="cls-20" x="1205.5" y="644.5" width="147" height="100"/><line class="cls-21" x1="1223.5" y1="671.5" x2="1332.5" y2="671.5"/><line class="cls-21" x1="1223.5" y1="679.5" x2="1332.5" y2="679.5"/><line class="cls-21" x1="1223.5" y1="685.5" x2="1332.5" y2="685.5"/><line class="cls-21" x1="1224.5" y1="692.5" x2="1290.5" y2="692.5"/><line class="cls-21" x1="1257.5" y1="719.5" x2="1332.5" y2="719.5"/><line class="cls-21" x1="1258.5" y1="727.5" x2="1303.5" y2="727.5"/><rect class="cls-21" x="1223.5" y="702.5" width="25" height="25"/><path class="cls-18" d="M887.5,460.5h84.39s13.61-37,50.61-69c0,0,7-7,5,2,0,0-18,26-23,36s11-3,15-8,50-35,81-45c0,0,10-.3,0,5.35s-59,40.65-74,56.65c0,0,0,5,6,1s36-15,41-15c0,0,5,2-2,5s-44,21-54,34l31,18s3-1-1,4l-11,6H861.09l-9.59-6s-4-3,2-6l21-14,7,12s2,4,8,3S887.5,460.5,887.5,460.5Z"/><path class="cls-11" d="M737.5,168.5s-11.92-7.34-23,12.33c0,0-5,6.67-6,17.67,0,0,9.49-.09,23.24-11.54C731.74,187,742.5,178.5,737.5,168.5Z"/><circle class="cls-22" cx="1221.5" cy="258.5" r="8"/><path class="cls-15" d="M734,874s-181,32-277-37"/><path class="cls-15" d="M1418.19,414.39s32.14,76.11-142.78,174.11"/><path class="cls-15" d="M535.5,612.5s139.64,46.09,240.82,35.55"/><path class="cls-15" d="M396.72,534.79S403.5,656.59,643.5,691"/><circle class="cls-18" cx="477.75" cy="699.75" r="20.25"/><circle class="cls-18" cx="1205.75" cy="1012.75" r="20.25"/><circle class="cls-18" cx="1148.75" cy="517.75" r="10.25"/><circle class="cls-18" cx="1391.75" cy="582.75" r="10.25"/><circle class="cls-18" cx="1425.75" cy="619.75" r="5.25"/><circle class="cls-18" cx="1248.25" cy="948.25" r="10.75"/><circle class="cls-18" cx="477.75" cy="702.75" r="19.25"/><circle class="cls-18" cx="497.75" cy="582.75" r="12.25"/><circle class="cls-18" cx="1291.25" cy="955.25" r="6.75"/></g><g id="Layer_5" data-name="Layer 5"><ellipse class="cls-23" cx="940.5" cy="1056" rx="200.5" ry="22"/><ellipse class="cls-24" cx="1061" cy="1055.5" rx="55" ry="11.5"/><path d="M1013.5,1012.5s4,13,14,1,22-3,22-2c0,0,9,21,24,33l7,6a4.33,4.33,0,0,1,2,4c0,3,1,8-8,11s-26.64,2-32.82,0-12.18-9-22.18-11-12-3-12-14a60.88,60.88,0,0,1,2.5-18.19C1010.92,1019.21,1012.08,1016,1013.5,1012.5Z"/><ellipse class="cls-24" cx="865.5" cy="1057" rx="52.5" ry="10"/><path class="cls-25" d="M873.5,1010.5s-4,10-12,4-11-9.36-21.52-7.18c0,0-8.48,14.18-26.48,31.18,0,0-10,7-16,12,0,0-2,0-2,4s-1,9,8,11,26,5,47-5c0,0,10-7,22-8,0,0,8-1,8-7S883.5,1025.5,873.5,1010.5Z"/><path class="cls-10" d="M1017.5,1032.5l-7.19-11.19,3.19-8.81s4,12,14,1c0,0,8,5,7,7S1029.5,1021.5,1017.5,1032.5Z"/><path class="cls-10" d="M1038.5,1026.5l2,4s-14,13-14,16-2-5-2-5S1035.5,1028.5,1038.5,1026.5Z"/><path class="cls-10" d="M1046.19,1036.84s-11.69,9.66-12.69,16.66c0,0,12,11,32,8,0,0,4-15,15-11l-13.58-12.17s1.58,8.17-8.42,7.17S1046.19,1036.84,1046.19,1036.84Z"/><line class="cls-26" x1="1038.5" y1="1023.5" x2="1051.5" y2="1020.5"/><line class="cls-26" x1="1043.5" y1="1031.5" x2="1055.5" y2="1027.5"/><line class="cls-26" x1="1049.5" y1="1038.5" x2="1060.5" y2="1033.5"/><path class="cls-10" d="M860.79,1013.79s-7.83,4.69-6.79,6.78L868.61,1031l9.39-10.43s-.49-6.47-4.42-10.54C873.58,1010,868.09,1019,860.79,1013.79Z"/><polygon class="cls-10" points="849.5 1027.5 846.19 1031 860.5 1046.5 862.5 1040.5 849.5 1027.5"/><path class="cls-10" d="M839.55,1037s12,11.5,13,15.5a72.63,72.63,0,0,1-24,10s-12,1-15-1c0,0-1-9-9-11s-8.18.7-8.18.7l17.18-12.7s6,10,16,5S839.55,1037,839.55,1037Z"/><line class="cls-27" x1="821.5" y1="1032.5" x2="833.5" y2="1037.5"/><line class="cls-27" x1="828.5" y1="1026.5" x2="841.5" y2="1030.5"/><line class="cls-27" x1="834.5" y1="1020.5" x2="846.5" y2="1024.5"/><circle class="cls-28" cx="846.5" cy="1024.5" r="1.5"/><circle class="cls-28" cx="834.5" cy="1020.5" r="1.5"/><circle class="cls-28" cx="828.5" cy="1026.5" r="1.5"/><circle class="cls-28" cx="822.5" cy="1032.5" r="1.5"/><circle class="cls-28" cx="833.5" cy="1037.5" r="1.5"/><circle class="cls-28" cx="840.5" cy="1030.5" r="1.5"/><circle class="cls-28" cx="1038.5" cy="1023.5" r="1.5"/><circle class="cls-28" cx="1055.5" cy="1027.5" r="1.5"/><circle class="cls-28" cx="1043.5" cy="1031.5" r="1.5"/><circle class="cls-28" cx="1060.5" cy="1033.5" r="1.5"/><circle class="cls-28" cx="1049.5" cy="1038.5" r="1.5"/><circle class="cls-28" cx="1051.5" cy="1020.5" r="1.5"/></g></svg>